# xmcd
# Copyright (C) 1995-1998 Ti Kan
#
# Track frame offsets:
#       150
#       21975
#       40297
#       51998
#       77352
#       93252
#       108254
#       125842
#       147073
#       169339
#       190601
#       207408
#
# Disc length: 3695 seconds
#
# Revision: 0
# Processed by: cddbd v1.5.2PL0 Copyright (c) Steve Scherf et al.
# Submitted via: CD-Transfer v1.0
#
DISCID=a10e6d0c
DTITLE=Swab - Not The King
DYEAR=04
DGENRE=
TTITLE0=Teknotronik
TTITLE1=Eve
TTITLE2=High and Down
TTITLE3=Stones and Dust
TTITLE4=For A While
TTITLE5=Circle
TTITLE6=So Many Times
TTITLE7=Which Rank
TTITLE8=Alone
TTITLE9=Cou Rire
TTITLE10=Exotico
TTITLE11=Tranquille
EXTD=
EXTT0=
EXTT1=
EXTT2=
EXTT3=
EXTT4=
EXTT5=
EXTT6=
EXTT7=
EXTT8=
EXTT9=
EXTT10=
EXTT11=
PLAYORDER=
